<mxfile host="Electron" modified="2024-02-14T05:37:58.027Z" agent="Mozilla/5.0 (Macintosh; Intel Mac OS X 10_15_7) AppleWebKit/537.36 (KHTML, like Gecko) draw.io/23.0.2 Chrome/120.0.6099.109 Electron/28.1.0 Safari/537.36" etag="J3qZx9uIHtL1-22vUwju" version="23.0.2" type="device">
  <diagram name="페이지-1" id="cmw8NRTkTT7xykhnE3tY">
    <mxGraphModel dx="1114" dy="894" grid="1" gridSize="10" guides="1" tooltips="1" connect="1" arrows="1" fold="1" page="1" pageScale="1" pageWidth="827" pageHeight="1169" math="0" shadow="0">
      <root>
        <mxCell id="0" />
        <mxCell id="1" parent="0" />
        <mxCell id="gUDYHegWfViApF1iQn1Y-4" style="edgeStyle=orthogonalEdgeStyle;rounded=0;orthogonalLoop=1;jettySize=auto;html=1;entryX=0;entryY=0.5;entryDx=0;entryDy=0;endArrow=block;endFill=1;" edge="1" parent="1" source="gUDYHegWfViApF1iQn1Y-1" target="gUDYHegWfViApF1iQn1Y-2">
          <mxGeometry relative="1" as="geometry" />
        </mxCell>
        <mxCell id="gUDYHegWfViApF1iQn1Y-1" value="AuthenticationProvider" style="rounded=0;whiteSpace=wrap;html=1;" vertex="1" parent="1">
          <mxGeometry x="160" y="160" width="150" height="50" as="geometry" />
        </mxCell>
        <mxCell id="gUDYHegWfViApF1iQn1Y-5" style="edgeStyle=orthogonalEdgeStyle;rounded=0;orthogonalLoop=1;jettySize=auto;html=1;entryX=0;entryY=0.5;entryDx=0;entryDy=0;endArrow=block;endFill=1;" edge="1" parent="1" source="gUDYHegWfViApF1iQn1Y-2" target="gUDYHegWfViApF1iQn1Y-3">
          <mxGeometry relative="1" as="geometry" />
        </mxCell>
        <mxCell id="gUDYHegWfViApF1iQn1Y-2" value="&amp;nbsp; UserDetailsService&lt;br&gt;&lt;i&gt;&amp;nbsp; loadUserbyUsername(Stirng username)&lt;/i&gt;" style="rounded=0;whiteSpace=wrap;html=1;align=left;" vertex="1" parent="1">
          <mxGeometry x="370" y="160" width="230" height="50" as="geometry" />
        </mxCell>
        <mxCell id="gUDYHegWfViApF1iQn1Y-3" value="DB&lt;br&gt;&lt;br&gt;외부 시스템&lt;br&gt;&lt;br&gt;Vault&lt;br&gt;..." style="rounded=0;whiteSpace=wrap;html=1;" vertex="1" parent="1">
          <mxGeometry x="660" y="85" width="80" height="200" as="geometry" />
        </mxCell>
      </root>
    </mxGraphModel>
  </diagram>
</mxfile>
